<mxfile host="app.diagrams.net" agent="Mozilla/5.0 (Windows NT 10.0; Win64; x64) AppleWebKit/537.36 (KHTML, like Gecko) Chrome/128.0.0.0 Safari/537.36" version="24.7.10">
  <diagram name="Страница — 1" id="QKNt265_Iv7t7Sv83_EB">
    <mxGraphModel dx="1509" dy="821" grid="1" gridSize="10" guides="1" tooltips="1" connect="1" arrows="1" fold="1" page="1" pageScale="1" pageWidth="850" pageHeight="1100" math="0" shadow="0">
      <root>
        <mxCell id="0" />
        <mxCell id="1" parent="0" />
        <mxCell id="BMl1e_dXPQe9FOXhRGfQ-3" value="Регистрация" style="rounded=1;whiteSpace=wrap;html=1;fillColor=#f8cecc;strokeColor=#b85450;" vertex="1" parent="1">
          <mxGeometry x="190" y="290" width="120" height="60" as="geometry" />
        </mxCell>
        <mxCell id="BMl1e_dXPQe9FOXhRGfQ-56" style="edgeStyle=orthogonalEdgeStyle;rounded=0;orthogonalLoop=1;jettySize=auto;html=1;entryX=0;entryY=0.5;entryDx=0;entryDy=0;" edge="1" parent="1" source="BMl1e_dXPQe9FOXhRGfQ-6" target="BMl1e_dXPQe9FOXhRGfQ-55">
          <mxGeometry relative="1" as="geometry" />
        </mxCell>
        <mxCell id="BMl1e_dXPQe9FOXhRGfQ-6" value="Логин" style="rounded=1;whiteSpace=wrap;html=1;fillColor=#f8cecc;strokeColor=#b85450;" vertex="1" parent="1">
          <mxGeometry x="190" y="530" width="120" height="60" as="geometry" />
        </mxCell>
        <mxCell id="BMl1e_dXPQe9FOXhRGfQ-41" style="edgeStyle=orthogonalEdgeStyle;rounded=0;orthogonalLoop=1;jettySize=auto;html=1;entryX=0;entryY=0.5;entryDx=0;entryDy=0;" edge="1" parent="1" source="BMl1e_dXPQe9FOXhRGfQ-14">
          <mxGeometry relative="1" as="geometry">
            <mxPoint x="1301.2000000000087" y="116.46499999999992" as="targetPoint" />
          </mxGeometry>
        </mxCell>
        <mxCell id="BMl1e_dXPQe9FOXhRGfQ-92" style="edgeStyle=orthogonalEdgeStyle;rounded=0;orthogonalLoop=1;jettySize=auto;html=1;entryX=0.5;entryY=0;entryDx=0;entryDy=0;" edge="1" parent="1" source="BMl1e_dXPQe9FOXhRGfQ-14" target="BMl1e_dXPQe9FOXhRGfQ-62">
          <mxGeometry relative="1" as="geometry" />
        </mxCell>
        <mxCell id="BMl1e_dXPQe9FOXhRGfQ-110" value="" style="edgeStyle=orthogonalEdgeStyle;rounded=0;orthogonalLoop=1;jettySize=auto;html=1;" edge="1" parent="1" source="BMl1e_dXPQe9FOXhRGfQ-14" target="BMl1e_dXPQe9FOXhRGfQ-17">
          <mxGeometry relative="1" as="geometry" />
        </mxCell>
        <mxCell id="BMl1e_dXPQe9FOXhRGfQ-14" value="&lt;font style=&quot;font-size: 17px;&quot;&gt;BCrypt&lt;/font&gt;" style="shape=image;html=1;verticalLabelPosition=bottom;verticalAlign=top;imageAspect=1;aspect=fixed;image=img/clipart/Gear_128x128.png" vertex="1" parent="1">
          <mxGeometry x="1145.2" y="334.5" width="52" height="61" as="geometry" />
        </mxCell>
        <mxCell id="BMl1e_dXPQe9FOXhRGfQ-113" style="edgeStyle=orthogonalEdgeStyle;rounded=0;orthogonalLoop=1;jettySize=auto;html=1;" edge="1" parent="1" source="BMl1e_dXPQe9FOXhRGfQ-15" target="BMl1e_dXPQe9FOXhRGfQ-84">
          <mxGeometry relative="1" as="geometry" />
        </mxCell>
        <mxCell id="BMl1e_dXPQe9FOXhRGfQ-15" value="&lt;font style=&quot;font-size: 17px;&quot;&gt;Database server&lt;/font&gt;" style="image;aspect=fixed;perimeter=ellipsePerimeter;html=1;align=center;shadow=0;dashed=0;spacingTop=3;image=img/lib/active_directory/database_server.svg;" vertex="1" parent="1">
          <mxGeometry x="1240" y="2.93" width="186.2" height="227.07" as="geometry" />
        </mxCell>
        <mxCell id="BMl1e_dXPQe9FOXhRGfQ-16" value="Cloud" style="image;aspect=fixed;perimeter=ellipsePerimeter;html=1;align=center;shadow=0;dashed=0;spacingTop=3;image=img/lib/active_directory/internet_cloud.svg;" vertex="1" parent="1">
          <mxGeometry x="1590" y="530" width="174.6" height="110" as="geometry" />
        </mxCell>
        <mxCell id="BMl1e_dXPQe9FOXhRGfQ-23" style="edgeStyle=orthogonalEdgeStyle;rounded=0;orthogonalLoop=1;jettySize=auto;html=1;entryX=0;entryY=0.5;entryDx=0;entryDy=0;" edge="1" parent="1" source="BMl1e_dXPQe9FOXhRGfQ-21" target="BMl1e_dXPQe9FOXhRGfQ-3">
          <mxGeometry relative="1" as="geometry" />
        </mxCell>
        <mxCell id="BMl1e_dXPQe9FOXhRGfQ-24" style="edgeStyle=orthogonalEdgeStyle;rounded=0;orthogonalLoop=1;jettySize=auto;html=1;entryX=0;entryY=0.5;entryDx=0;entryDy=0;" edge="1" parent="1" source="BMl1e_dXPQe9FOXhRGfQ-21" target="BMl1e_dXPQe9FOXhRGfQ-6">
          <mxGeometry relative="1" as="geometry" />
        </mxCell>
        <mxCell id="BMl1e_dXPQe9FOXhRGfQ-21" value="User" style="image;aspect=fixed;perimeter=ellipsePerimeter;html=1;align=center;shadow=0;dashed=0;spacingTop=3;image=img/lib/active_directory/user.svg;" vertex="1" parent="1">
          <mxGeometry x="50" y="376.5" width="66.6" height="180" as="geometry" />
        </mxCell>
        <mxCell id="BMl1e_dXPQe9FOXhRGfQ-27" value="" style="group" vertex="1" connectable="0" parent="1">
          <mxGeometry x="840" y="260" width="130" height="210" as="geometry" />
        </mxCell>
        <mxCell id="BMl1e_dXPQe9FOXhRGfQ-17" value="&lt;font size=&quot;1&quot; style=&quot;&quot;&gt;&lt;b style=&quot;font-size: 19px;&quot;&gt;Main server&lt;/b&gt;&lt;/font&gt;" style="image;aspect=fixed;perimeter=ellipsePerimeter;html=1;align=center;shadow=0;dashed=0;spacingTop=3;image=img/lib/active_directory/generic_server.svg;" vertex="1" parent="BMl1e_dXPQe9FOXhRGfQ-27">
          <mxGeometry width="117.6" height="210" as="geometry" />
        </mxCell>
        <mxCell id="BMl1e_dXPQe9FOXhRGfQ-136" style="edgeStyle=orthogonalEdgeStyle;rounded=0;orthogonalLoop=1;jettySize=auto;html=1;" edge="1" parent="1" source="BMl1e_dXPQe9FOXhRGfQ-28" target="BMl1e_dXPQe9FOXhRGfQ-128">
          <mxGeometry relative="1" as="geometry" />
        </mxCell>
        <mxCell id="BMl1e_dXPQe9FOXhRGfQ-145" style="edgeStyle=orthogonalEdgeStyle;rounded=0;orthogonalLoop=1;jettySize=auto;html=1;" edge="1" parent="1" source="BMl1e_dXPQe9FOXhRGfQ-28" target="BMl1e_dXPQe9FOXhRGfQ-29">
          <mxGeometry relative="1" as="geometry">
            <Array as="points">
              <mxPoint x="689" y="735" />
            </Array>
          </mxGeometry>
        </mxCell>
        <mxCell id="BMl1e_dXPQe9FOXhRGfQ-28" value="" style="dashed=0;outlineConnect=0;html=1;align=center;labelPosition=center;verticalLabelPosition=bottom;verticalAlign=top;shape=mxgraph.weblogos.android;fillColor=#A4CA39;strokeColor=none" vertex="1" parent="1">
          <mxGeometry x="445.5" y="660" width="139" height="150" as="geometry" />
        </mxCell>
        <mxCell id="BMl1e_dXPQe9FOXhRGfQ-147" style="edgeStyle=orthogonalEdgeStyle;rounded=0;orthogonalLoop=1;jettySize=auto;html=1;entryX=0;entryY=0.5;entryDx=0;entryDy=0;" edge="1" parent="1" source="BMl1e_dXPQe9FOXhRGfQ-29" target="BMl1e_dXPQe9FOXhRGfQ-17">
          <mxGeometry relative="1" as="geometry" />
        </mxCell>
        <mxCell id="BMl1e_dXPQe9FOXhRGfQ-29" value="" style="dashed=0;outlineConnect=0;html=1;align=center;labelPosition=center;verticalLabelPosition=bottom;verticalAlign=top;shape=mxgraph.weblogos.json_2" vertex="1" parent="1">
          <mxGeometry x="649" y="352.3999999999999" width="80.4" height="25.200000000000003" as="geometry" />
        </mxCell>
        <mxCell id="BMl1e_dXPQe9FOXhRGfQ-152" style="edgeStyle=orthogonalEdgeStyle;rounded=0;orthogonalLoop=1;jettySize=auto;html=1;" edge="1" parent="1" source="BMl1e_dXPQe9FOXhRGfQ-35" target="BMl1e_dXPQe9FOXhRGfQ-28">
          <mxGeometry relative="1" as="geometry" />
        </mxCell>
        <mxCell id="BMl1e_dXPQe9FOXhRGfQ-35" value="&lt;ul style=&quot;font-size: 15px;&quot;&gt;&lt;li&gt;Username&lt;/li&gt;&lt;li&gt;Password&lt;/li&gt;&lt;li&gt;Email&lt;/li&gt;&lt;/ul&gt;" style="text;strokeColor=none;fillColor=none;html=1;whiteSpace=wrap;verticalAlign=middle;overflow=hidden;arcSize=12;imageHeight=24;" vertex="1" parent="1">
          <mxGeometry x="440" y="290" width="150" height="80" as="geometry" />
        </mxCell>
        <mxCell id="BMl1e_dXPQe9FOXhRGfQ-40" style="edgeStyle=orthogonalEdgeStyle;rounded=0;orthogonalLoop=1;jettySize=auto;html=1;entryX=0;entryY=0.5;entryDx=0;entryDy=0;" edge="1" parent="1" source="BMl1e_dXPQe9FOXhRGfQ-17" target="BMl1e_dXPQe9FOXhRGfQ-14">
          <mxGeometry relative="1" as="geometry" />
        </mxCell>
        <mxCell id="BMl1e_dXPQe9FOXhRGfQ-47" style="edgeStyle=orthogonalEdgeStyle;rounded=0;orthogonalLoop=1;jettySize=auto;html=1;entryX=1;entryY=0.5;entryDx=0;entryDy=0;startArrow=classic;startFill=1;" edge="1" parent="1" source="BMl1e_dXPQe9FOXhRGfQ-43" target="BMl1e_dXPQe9FOXhRGfQ-46">
          <mxGeometry relative="1" as="geometry" />
        </mxCell>
        <mxCell id="BMl1e_dXPQe9FOXhRGfQ-43" value="&lt;b&gt;&lt;font style=&quot;font-size: 16px;&quot;&gt;scheduleapp@mail.ru&lt;/font&gt;&lt;/b&gt;" style="shape=message;html=1;html=1;outlineConnect=0;labelPosition=center;verticalLabelPosition=bottom;align=center;verticalAlign=top;" vertex="1" parent="1">
          <mxGeometry x="760" y="50" width="90" height="60" as="geometry" />
        </mxCell>
        <mxCell id="BMl1e_dXPQe9FOXhRGfQ-44" style="edgeStyle=orthogonalEdgeStyle;rounded=0;orthogonalLoop=1;jettySize=auto;html=1;entryX=0.5;entryY=1;entryDx=0;entryDy=0;startArrow=classic;startFill=1;" edge="1" parent="1" source="BMl1e_dXPQe9FOXhRGfQ-17" target="BMl1e_dXPQe9FOXhRGfQ-43">
          <mxGeometry relative="1" as="geometry" />
        </mxCell>
        <mxCell id="BMl1e_dXPQe9FOXhRGfQ-53" value="&lt;font style=&quot;font-size: 14px;&quot;&gt;Верификация/&lt;/font&gt;&lt;div style=&quot;font-size: 14px;&quot;&gt;&lt;font style=&quot;font-size: 14px;&quot;&gt;Забыл пароль&lt;/font&gt;&lt;/div&gt;" style="edgeLabel;html=1;align=center;verticalAlign=middle;resizable=0;points=[];" vertex="1" connectable="0" parent="BMl1e_dXPQe9FOXhRGfQ-44">
          <mxGeometry x="0.2279" relative="1" as="geometry">
            <mxPoint as="offset" />
          </mxGeometry>
        </mxCell>
        <mxCell id="BMl1e_dXPQe9FOXhRGfQ-48" style="edgeStyle=orthogonalEdgeStyle;rounded=0;orthogonalLoop=1;jettySize=auto;html=1;entryX=0.5;entryY=0;entryDx=0;entryDy=0;startArrow=classic;startFill=1;" edge="1" parent="1" source="BMl1e_dXPQe9FOXhRGfQ-46" target="BMl1e_dXPQe9FOXhRGfQ-21">
          <mxGeometry relative="1" as="geometry" />
        </mxCell>
        <mxCell id="BMl1e_dXPQe9FOXhRGfQ-46" value="Подтверждение аккаун&lt;span style=&quot;background-color: initial;&quot;&gt;та/&lt;/span&gt;&lt;div&gt;Забыл пароль&lt;span style=&quot;background-color: initial;&quot;&gt;&lt;br&gt;&lt;/span&gt;&lt;/div&gt;" style="rounded=1;whiteSpace=wrap;html=1;fillColor=#f8cecc;strokeColor=#b85450;" vertex="1" parent="1">
          <mxGeometry x="190" y="95.5" width="120" height="60" as="geometry" />
        </mxCell>
        <mxCell id="BMl1e_dXPQe9FOXhRGfQ-129" style="edgeStyle=orthogonalEdgeStyle;rounded=0;orthogonalLoop=1;jettySize=auto;html=1;" edge="1" parent="1" source="BMl1e_dXPQe9FOXhRGfQ-58" target="BMl1e_dXPQe9FOXhRGfQ-28">
          <mxGeometry relative="1" as="geometry" />
        </mxCell>
        <mxCell id="BMl1e_dXPQe9FOXhRGfQ-58" value="&lt;font style=&quot;font-size: 18px;&quot;&gt;JWT&lt;/font&gt;" style="image;aspect=fixed;perimeter=ellipsePerimeter;html=1;align=center;shadow=0;dashed=0;spacingTop=3;image=img/lib/active_directory/key.svg;" vertex="1" parent="1">
          <mxGeometry x="880" y="880" width="121.62" height="90" as="geometry" />
        </mxCell>
        <mxCell id="BMl1e_dXPQe9FOXhRGfQ-66" style="edgeStyle=orthogonalEdgeStyle;rounded=0;orthogonalLoop=1;jettySize=auto;html=1;entryX=0.5;entryY=0;entryDx=0;entryDy=0;" edge="1" parent="1" source="BMl1e_dXPQe9FOXhRGfQ-62" target="BMl1e_dXPQe9FOXhRGfQ-58">
          <mxGeometry relative="1" as="geometry" />
        </mxCell>
        <mxCell id="BMl1e_dXPQe9FOXhRGfQ-67" value="&lt;font style=&quot;font-size: 17px;&quot;&gt;True&lt;/font&gt;" style="edgeLabel;html=1;align=center;verticalAlign=middle;resizable=0;points=[];" vertex="1" connectable="0" parent="BMl1e_dXPQe9FOXhRGfQ-66">
          <mxGeometry x="-0.3884" relative="1" as="geometry">
            <mxPoint as="offset" />
          </mxGeometry>
        </mxCell>
        <mxCell id="BMl1e_dXPQe9FOXhRGfQ-71" style="edgeStyle=orthogonalEdgeStyle;rounded=0;orthogonalLoop=1;jettySize=auto;html=1;entryX=0.5;entryY=0;entryDx=0;entryDy=0;" edge="1" parent="1" source="BMl1e_dXPQe9FOXhRGfQ-62" target="BMl1e_dXPQe9FOXhRGfQ-68">
          <mxGeometry relative="1" as="geometry" />
        </mxCell>
        <mxCell id="BMl1e_dXPQe9FOXhRGfQ-73" value="&lt;font style=&quot;font-size: 17px;&quot;&gt;False&lt;/font&gt;" style="edgeLabel;html=1;align=center;verticalAlign=middle;resizable=0;points=[];" vertex="1" connectable="0" parent="BMl1e_dXPQe9FOXhRGfQ-71">
          <mxGeometry x="-0.406" y="2" relative="1" as="geometry">
            <mxPoint as="offset" />
          </mxGeometry>
        </mxCell>
        <mxCell id="BMl1e_dXPQe9FOXhRGfQ-62" value="Verified" style="rhombus;whiteSpace=wrap;html=1;" vertex="1" parent="1">
          <mxGeometry x="1130" y="770" width="80" height="80" as="geometry" />
        </mxCell>
        <mxCell id="BMl1e_dXPQe9FOXhRGfQ-68" value="Пароль/Логин неверный" style="rounded=1;whiteSpace=wrap;html=1;" vertex="1" parent="1">
          <mxGeometry x="1275" y="895" width="120" height="60" as="geometry" />
        </mxCell>
        <mxCell id="BMl1e_dXPQe9FOXhRGfQ-153" style="edgeStyle=orthogonalEdgeStyle;rounded=0;orthogonalLoop=1;jettySize=auto;html=1;entryX=0.5;entryY=0;entryDx=0;entryDy=0;" edge="1" parent="1" source="BMl1e_dXPQe9FOXhRGfQ-75" target="BMl1e_dXPQe9FOXhRGfQ-35">
          <mxGeometry relative="1" as="geometry" />
        </mxCell>
        <mxCell id="BMl1e_dXPQe9FOXhRGfQ-75" value="&lt;font color=&quot;#000000&quot;&gt;reCAPTCHA&lt;/font&gt;" style="strokeWidth=1;shadow=0;dashed=0;align=center;html=1;shape=mxgraph.mockup.text.captcha;fontColor=#666666;fontSize=25;strokeColor=#666666;mainText=" vertex="1" parent="1">
          <mxGeometry x="440" y="170" width="150" height="50" as="geometry" />
        </mxCell>
        <mxCell id="BMl1e_dXPQe9FOXhRGfQ-76" style="edgeStyle=orthogonalEdgeStyle;rounded=0;orthogonalLoop=1;jettySize=auto;html=1;entryX=-0.004;entryY=0.538;entryDx=0;entryDy=0;entryPerimeter=0;" edge="1" parent="1" source="BMl1e_dXPQe9FOXhRGfQ-3" target="BMl1e_dXPQe9FOXhRGfQ-75">
          <mxGeometry relative="1" as="geometry" />
        </mxCell>
        <mxCell id="BMl1e_dXPQe9FOXhRGfQ-114" style="edgeStyle=orthogonalEdgeStyle;rounded=0;orthogonalLoop=1;jettySize=auto;html=1;entryX=0;entryY=0.5;entryDx=0;entryDy=0;" edge="1" parent="1" source="BMl1e_dXPQe9FOXhRGfQ-84" target="BMl1e_dXPQe9FOXhRGfQ-100">
          <mxGeometry relative="1" as="geometry" />
        </mxCell>
        <mxCell id="BMl1e_dXPQe9FOXhRGfQ-84" value="" style="sketch=0;outlineConnect=0;fontColor=#232F3E;gradientColor=none;fillColor=#C925D1;strokeColor=none;dashed=0;verticalLabelPosition=bottom;verticalAlign=top;align=center;html=1;fontSize=12;fontStyle=0;aspect=fixed;pointerEvents=1;shape=mxgraph.aws4.rds_mariadb_instance_alt;" vertex="1" parent="1">
          <mxGeometry x="1480" y="77.47" width="78" height="78" as="geometry" />
        </mxCell>
        <mxCell id="BMl1e_dXPQe9FOXhRGfQ-96" value="Users" style="shape=table;startSize=30;container=1;collapsible=1;childLayout=tableLayout;fixedRows=1;rowLines=0;fontStyle=1;align=center;resizeLast=1;html=1;" vertex="1" parent="1">
          <mxGeometry x="1650" y="41.47" width="180" height="279" as="geometry">
            <mxRectangle x="1470" y="50.5" width="70" height="30" as="alternateBounds" />
          </mxGeometry>
        </mxCell>
        <mxCell id="BMl1e_dXPQe9FOXhRGfQ-97" value="" style="shape=tableRow;horizontal=0;startSize=0;swimlaneHead=0;swimlaneBody=0;fillColor=none;collapsible=0;dropTarget=0;points=[[0,0.5],[1,0.5]];portConstraint=eastwest;top=0;left=0;right=0;bottom=1;" vertex="1" parent="BMl1e_dXPQe9FOXhRGfQ-96">
          <mxGeometry y="30" width="180" height="30" as="geometry" />
        </mxCell>
        <mxCell id="BMl1e_dXPQe9FOXhRGfQ-98" value="id" style="shape=partialRectangle;connectable=0;fillColor=none;top=0;left=0;bottom=0;right=0;fontStyle=1;overflow=hidden;whiteSpace=wrap;html=1;" vertex="1" parent="BMl1e_dXPQe9FOXhRGfQ-97">
          <mxGeometry width="30" height="30" as="geometry">
            <mxRectangle width="30" height="30" as="alternateBounds" />
          </mxGeometry>
        </mxCell>
        <mxCell id="BMl1e_dXPQe9FOXhRGfQ-99" value="UniqueID" style="shape=partialRectangle;connectable=0;fillColor=none;top=0;left=0;bottom=0;right=0;align=left;spacingLeft=6;fontStyle=5;overflow=hidden;whiteSpace=wrap;html=1;" vertex="1" parent="BMl1e_dXPQe9FOXhRGfQ-97">
          <mxGeometry x="30" width="150" height="30" as="geometry">
            <mxRectangle width="150" height="30" as="alternateBounds" />
          </mxGeometry>
        </mxCell>
        <mxCell id="BMl1e_dXPQe9FOXhRGfQ-100" value="" style="shape=tableRow;horizontal=0;startSize=0;swimlaneHead=0;swimlaneBody=0;fillColor=none;collapsible=0;dropTarget=0;points=[[0,0.5],[1,0.5]];portConstraint=eastwest;top=0;left=0;right=0;bottom=0;" vertex="1" parent="BMl1e_dXPQe9FOXhRGfQ-96">
          <mxGeometry y="60" width="180" height="30" as="geometry" />
        </mxCell>
        <mxCell id="BMl1e_dXPQe9FOXhRGfQ-101" value="" style="shape=partialRectangle;connectable=0;fillColor=none;top=0;left=0;bottom=0;right=0;editable=1;overflow=hidden;whiteSpace=wrap;html=1;" vertex="1" parent="BMl1e_dXPQe9FOXhRGfQ-100">
          <mxGeometry width="30" height="30" as="geometry">
            <mxRectangle width="30" height="30" as="alternateBounds" />
          </mxGeometry>
        </mxCell>
        <mxCell id="BMl1e_dXPQe9FOXhRGfQ-102" value="username" style="shape=partialRectangle;connectable=0;fillColor=none;top=0;left=0;bottom=0;right=0;align=left;spacingLeft=6;overflow=hidden;whiteSpace=wrap;html=1;" vertex="1" parent="BMl1e_dXPQe9FOXhRGfQ-100">
          <mxGeometry x="30" width="150" height="30" as="geometry">
            <mxRectangle width="150" height="30" as="alternateBounds" />
          </mxGeometry>
        </mxCell>
        <mxCell id="BMl1e_dXPQe9FOXhRGfQ-103" value="" style="shape=tableRow;horizontal=0;startSize=0;swimlaneHead=0;swimlaneBody=0;fillColor=none;collapsible=0;dropTarget=0;points=[[0,0.5],[1,0.5]];portConstraint=eastwest;top=0;left=0;right=0;bottom=0;" vertex="1" parent="BMl1e_dXPQe9FOXhRGfQ-96">
          <mxGeometry y="90" width="180" height="30" as="geometry" />
        </mxCell>
        <mxCell id="BMl1e_dXPQe9FOXhRGfQ-104" value="" style="shape=partialRectangle;connectable=0;fillColor=none;top=0;left=0;bottom=0;right=0;editable=1;overflow=hidden;whiteSpace=wrap;html=1;" vertex="1" parent="BMl1e_dXPQe9FOXhRGfQ-103">
          <mxGeometry width="30" height="30" as="geometry">
            <mxRectangle width="30" height="30" as="alternateBounds" />
          </mxGeometry>
        </mxCell>
        <mxCell id="BMl1e_dXPQe9FOXhRGfQ-105" value="passwordHash" style="shape=partialRectangle;connectable=0;fillColor=none;top=0;left=0;bottom=0;right=0;align=left;spacingLeft=6;overflow=hidden;whiteSpace=wrap;html=1;" vertex="1" parent="BMl1e_dXPQe9FOXhRGfQ-103">
          <mxGeometry x="30" width="150" height="30" as="geometry">
            <mxRectangle width="150" height="30" as="alternateBounds" />
          </mxGeometry>
        </mxCell>
        <mxCell id="BMl1e_dXPQe9FOXhRGfQ-106" value="" style="shape=tableRow;horizontal=0;startSize=0;swimlaneHead=0;swimlaneBody=0;fillColor=none;collapsible=0;dropTarget=0;points=[[0,0.5],[1,0.5]];portConstraint=eastwest;top=0;left=0;right=0;bottom=0;" vertex="1" parent="BMl1e_dXPQe9FOXhRGfQ-96">
          <mxGeometry y="120" width="180" height="30" as="geometry" />
        </mxCell>
        <mxCell id="BMl1e_dXPQe9FOXhRGfQ-107" value="" style="shape=partialRectangle;connectable=0;fillColor=none;top=0;left=0;bottom=0;right=0;editable=1;overflow=hidden;whiteSpace=wrap;html=1;" vertex="1" parent="BMl1e_dXPQe9FOXhRGfQ-106">
          <mxGeometry width="30" height="30" as="geometry">
            <mxRectangle width="30" height="30" as="alternateBounds" />
          </mxGeometry>
        </mxCell>
        <mxCell id="BMl1e_dXPQe9FOXhRGfQ-108" value="email" style="shape=partialRectangle;connectable=0;fillColor=none;top=0;left=0;bottom=0;right=0;align=left;spacingLeft=6;overflow=hidden;whiteSpace=wrap;html=1;" vertex="1" parent="BMl1e_dXPQe9FOXhRGfQ-106">
          <mxGeometry x="30" width="150" height="30" as="geometry">
            <mxRectangle width="150" height="30" as="alternateBounds" />
          </mxGeometry>
        </mxCell>
        <mxCell id="BMl1e_dXPQe9FOXhRGfQ-115" value="" style="shape=tableRow;horizontal=0;startSize=0;swimlaneHead=0;swimlaneBody=0;fillColor=none;collapsible=0;dropTarget=0;points=[[0,0.5],[1,0.5]];portConstraint=eastwest;top=0;left=0;right=0;bottom=0;" vertex="1" parent="BMl1e_dXPQe9FOXhRGfQ-96">
          <mxGeometry y="150" width="180" height="30" as="geometry" />
        </mxCell>
        <mxCell id="BMl1e_dXPQe9FOXhRGfQ-116" value="" style="shape=partialRectangle;connectable=0;fillColor=none;top=0;left=0;bottom=0;right=0;editable=1;overflow=hidden;whiteSpace=wrap;html=1;" vertex="1" parent="BMl1e_dXPQe9FOXhRGfQ-115">
          <mxGeometry width="30" height="30" as="geometry">
            <mxRectangle width="30" height="30" as="alternateBounds" />
          </mxGeometry>
        </mxCell>
        <mxCell id="BMl1e_dXPQe9FOXhRGfQ-117" value="mailVerified" style="shape=partialRectangle;connectable=0;fillColor=none;top=0;left=0;bottom=0;right=0;align=left;spacingLeft=6;overflow=hidden;whiteSpace=wrap;html=1;" vertex="1" parent="BMl1e_dXPQe9FOXhRGfQ-115">
          <mxGeometry x="30" width="150" height="30" as="geometry">
            <mxRectangle width="150" height="30" as="alternateBounds" />
          </mxGeometry>
        </mxCell>
        <mxCell id="BMl1e_dXPQe9FOXhRGfQ-118" value="" style="shape=tableRow;horizontal=0;startSize=0;swimlaneHead=0;swimlaneBody=0;fillColor=none;collapsible=0;dropTarget=0;points=[[0,0.5],[1,0.5]];portConstraint=eastwest;top=0;left=0;right=0;bottom=0;" vertex="1" parent="BMl1e_dXPQe9FOXhRGfQ-96">
          <mxGeometry y="180" width="180" height="30" as="geometry" />
        </mxCell>
        <mxCell id="BMl1e_dXPQe9FOXhRGfQ-119" value="" style="shape=partialRectangle;connectable=0;fillColor=none;top=0;left=0;bottom=0;right=0;editable=1;overflow=hidden;whiteSpace=wrap;html=1;" vertex="1" parent="BMl1e_dXPQe9FOXhRGfQ-118">
          <mxGeometry width="30" height="30" as="geometry">
            <mxRectangle width="30" height="30" as="alternateBounds" />
          </mxGeometry>
        </mxCell>
        <mxCell id="BMl1e_dXPQe9FOXhRGfQ-120" value="passwordHash" style="shape=partialRectangle;connectable=0;fillColor=none;top=0;left=0;bottom=0;right=0;align=left;spacingLeft=6;overflow=hidden;whiteSpace=wrap;html=1;" vertex="1" parent="BMl1e_dXPQe9FOXhRGfQ-118">
          <mxGeometry x="30" width="150" height="30" as="geometry">
            <mxRectangle width="150" height="30" as="alternateBounds" />
          </mxGeometry>
        </mxCell>
        <mxCell id="BMl1e_dXPQe9FOXhRGfQ-121" value="" style="shape=tableRow;horizontal=0;startSize=0;swimlaneHead=0;swimlaneBody=0;fillColor=none;collapsible=0;dropTarget=0;points=[[0,0.5],[1,0.5]];portConstraint=eastwest;top=0;left=0;right=0;bottom=0;" vertex="1" parent="BMl1e_dXPQe9FOXhRGfQ-96">
          <mxGeometry y="210" width="180" height="39" as="geometry" />
        </mxCell>
        <mxCell id="BMl1e_dXPQe9FOXhRGfQ-122" value="" style="shape=partialRectangle;connectable=0;fillColor=none;top=0;left=0;bottom=0;right=0;editable=1;overflow=hidden;whiteSpace=wrap;html=1;" vertex="1" parent="BMl1e_dXPQe9FOXhRGfQ-121">
          <mxGeometry width="30" height="39" as="geometry">
            <mxRectangle width="30" height="39" as="alternateBounds" />
          </mxGeometry>
        </mxCell>
        <mxCell id="BMl1e_dXPQe9FOXhRGfQ-123" value="verificationToken" style="shape=partialRectangle;connectable=0;fillColor=none;top=0;left=0;bottom=0;right=0;align=left;spacingLeft=6;overflow=hidden;whiteSpace=wrap;html=1;" vertex="1" parent="BMl1e_dXPQe9FOXhRGfQ-121">
          <mxGeometry x="30" width="150" height="39" as="geometry">
            <mxRectangle width="150" height="39" as="alternateBounds" />
          </mxGeometry>
        </mxCell>
        <mxCell id="BMl1e_dXPQe9FOXhRGfQ-124" value="" style="shape=tableRow;horizontal=0;startSize=0;swimlaneHead=0;swimlaneBody=0;fillColor=none;collapsible=0;dropTarget=0;points=[[0,0.5],[1,0.5]];portConstraint=eastwest;top=0;left=0;right=0;bottom=1;" vertex="1" parent="BMl1e_dXPQe9FOXhRGfQ-96">
          <mxGeometry y="249" width="180" height="30" as="geometry" />
        </mxCell>
        <mxCell id="BMl1e_dXPQe9FOXhRGfQ-125" value="" style="shape=partialRectangle;connectable=0;fillColor=none;top=0;left=0;bottom=0;right=0;fontStyle=1;overflow=hidden;whiteSpace=wrap;html=1;" vertex="1" parent="BMl1e_dXPQe9FOXhRGfQ-124">
          <mxGeometry width="30" height="30" as="geometry">
            <mxRectangle width="30" height="30" as="alternateBounds" />
          </mxGeometry>
        </mxCell>
        <mxCell id="BMl1e_dXPQe9FOXhRGfQ-126" value="" style="shape=partialRectangle;connectable=0;fillColor=none;top=0;left=0;bottom=0;right=0;align=left;spacingLeft=6;fontStyle=5;overflow=hidden;whiteSpace=wrap;html=1;" vertex="1" parent="BMl1e_dXPQe9FOXhRGfQ-124">
          <mxGeometry x="30" width="150" height="30" as="geometry">
            <mxRectangle width="150" height="30" as="alternateBounds" />
          </mxGeometry>
        </mxCell>
        <mxCell id="BMl1e_dXPQe9FOXhRGfQ-112" style="edgeStyle=orthogonalEdgeStyle;rounded=0;orthogonalLoop=1;jettySize=auto;html=1;entryX=0.5;entryY=0;entryDx=0;entryDy=0;" edge="1" parent="1" source="BMl1e_dXPQe9FOXhRGfQ-109" target="BMl1e_dXPQe9FOXhRGfQ-14">
          <mxGeometry relative="1" as="geometry" />
        </mxCell>
        <mxCell id="BMl1e_dXPQe9FOXhRGfQ-109" value="&lt;font style=&quot;font-size: 16px;&quot;&gt;+Salt&lt;/font&gt;" style="sketch=0;outlineConnect=0;fontColor=#232F3E;gradientColor=none;fillColor=#232F3D;strokeColor=none;dashed=0;verticalLabelPosition=bottom;verticalAlign=top;align=center;html=1;fontSize=12;fontStyle=0;aspect=fixed;pointerEvents=1;shape=mxgraph.aws4.shield2;" vertex="1" parent="1">
          <mxGeometry x="1041.2" y="240" width="78" height="78" as="geometry" />
        </mxCell>
        <mxCell id="BMl1e_dXPQe9FOXhRGfQ-111" style="edgeStyle=orthogonalEdgeStyle;rounded=0;orthogonalLoop=1;jettySize=auto;html=1;" edge="1" parent="1" source="BMl1e_dXPQe9FOXhRGfQ-17" target="BMl1e_dXPQe9FOXhRGfQ-109">
          <mxGeometry relative="1" as="geometry" />
        </mxCell>
        <mxCell id="BMl1e_dXPQe9FOXhRGfQ-128" value="" style="sketch=0;outlineConnect=0;fontColor=#232F3E;gradientColor=none;fillColor=#C925D1;strokeColor=none;dashed=0;verticalLabelPosition=bottom;verticalAlign=top;align=center;html=1;fontSize=12;fontStyle=0;aspect=fixed;pointerEvents=1;shape=mxgraph.aws4.cache_node;" vertex="1" parent="1">
          <mxGeometry x="90" y="790" width="78" height="78" as="geometry" />
        </mxCell>
        <mxCell id="BMl1e_dXPQe9FOXhRGfQ-137" value="createdDateTime" style="shape=partialRectangle;connectable=0;fillColor=none;top=0;left=0;bottom=0;right=0;align=left;spacingLeft=6;overflow=hidden;whiteSpace=wrap;html=1;" vertex="1" parent="1">
          <mxGeometry x="1680" y="279" width="150" height="39" as="geometry">
            <mxRectangle width="150" height="39" as="alternateBounds" />
          </mxGeometry>
        </mxCell>
        <mxCell id="BMl1e_dXPQe9FOXhRGfQ-141" value="" style="group" vertex="1" connectable="0" parent="1">
          <mxGeometry x="760" y="510" width="269.4" height="100" as="geometry" />
        </mxCell>
        <mxCell id="BMl1e_dXPQe9FOXhRGfQ-139" value="" style="group;fillColor=#fff2cc;strokeColor=#d6b656;container=0;" vertex="1" connectable="0" parent="BMl1e_dXPQe9FOXhRGfQ-141">
          <mxGeometry width="269.3999999999999" height="100" as="geometry" />
        </mxCell>
        <mxCell id="BMl1e_dXPQe9FOXhRGfQ-94" style="edgeStyle=orthogonalEdgeStyle;rounded=0;orthogonalLoop=1;jettySize=auto;html=1;entryX=0;entryY=0.5;entryDx=0;entryDy=0;" edge="1" parent="BMl1e_dXPQe9FOXhRGfQ-141" source="BMl1e_dXPQe9FOXhRGfQ-85" target="BMl1e_dXPQe9FOXhRGfQ-86">
          <mxGeometry relative="1" as="geometry" />
        </mxCell>
        <mxCell id="BMl1e_dXPQe9FOXhRGfQ-85" value="&lt;font style=&quot;font-size: 14px;&quot;&gt;Raspberry Pi 4&lt;/font&gt;" style="shape=image;html=1;verticalAlign=top;verticalLabelPosition=bottom;labelBackgroundColor=#ffffff;imageAspect=0;aspect=fixed;image=https://cdn1.iconfinder.com/data/icons/fruit-136/64/Fruit_iconfree_Filled_Outline_raspberry-healthy-organic-food-fruit_icon-128.png" vertex="1" parent="BMl1e_dXPQe9FOXhRGfQ-141">
          <mxGeometry x="8.387297633872878" y="6.339468302658487" width="56.72917523456612" height="56.72917523456612" as="geometry" />
        </mxCell>
        <mxCell id="BMl1e_dXPQe9FOXhRGfQ-95" style="edgeStyle=orthogonalEdgeStyle;rounded=0;orthogonalLoop=1;jettySize=auto;html=1;" edge="1" parent="BMl1e_dXPQe9FOXhRGfQ-141" source="BMl1e_dXPQe9FOXhRGfQ-86">
          <mxGeometry relative="1" as="geometry">
            <mxPoint x="202.3016189290162" y="36.80981595092006" as="targetPoint" />
          </mxGeometry>
        </mxCell>
        <mxCell id="BMl1e_dXPQe9FOXhRGfQ-86" value="&lt;font style=&quot;font-size: 15px;&quot;&gt;Debian&lt;/font&gt;" style="shape=image;html=1;verticalAlign=top;verticalLabelPosition=bottom;labelBackgroundColor=#ffffff;imageAspect=0;aspect=fixed;image=https://cdn1.iconfinder.com/data/icons/Vista-Inspirate_1.0/128x128/apps/debian.png" vertex="1" parent="BMl1e_dXPQe9FOXhRGfQ-141">
          <mxGeometry x="109.11874221668732" y="7.770961145194274" width="54.0640461967006" height="54.0640461967006" as="geometry" />
        </mxCell>
        <mxCell id="BMl1e_dXPQe9FOXhRGfQ-140" value="&lt;font style=&quot;font-size: 14px; background-color: rgb(255, 255, 255);&quot;&gt;Spring boot&lt;/font&gt;" style="dashed=0;outlineConnect=0;html=1;align=center;labelPosition=center;verticalLabelPosition=bottom;verticalAlign=top;shape=mxgraph.weblogos.java" vertex="1" parent="BMl1e_dXPQe9FOXhRGfQ-141">
          <mxGeometry x="218.06973848069725" y="3.173824130879342" width="34.55566625155666" height="67.280163599182" as="geometry" />
        </mxCell>
        <mxCell id="BMl1e_dXPQe9FOXhRGfQ-151" style="edgeStyle=orthogonalEdgeStyle;rounded=0;orthogonalLoop=1;jettySize=auto;html=1;" edge="1" parent="1" source="BMl1e_dXPQe9FOXhRGfQ-55" target="BMl1e_dXPQe9FOXhRGfQ-28">
          <mxGeometry relative="1" as="geometry" />
        </mxCell>
        <mxCell id="BMl1e_dXPQe9FOXhRGfQ-55" value="&lt;ul style=&quot;font-size: 15px;&quot;&gt;&lt;li&gt;Username&lt;/li&gt;&lt;li&gt;Password&lt;/li&gt;&lt;/ul&gt;" style="text;strokeColor=none;fillColor=none;html=1;whiteSpace=wrap;verticalAlign=middle;overflow=hidden;arcSize=12;imageHeight=24;" vertex="1" parent="1">
          <mxGeometry x="360" y="420" width="150" height="64.5" as="geometry" />
        </mxCell>
      </root>
    </mxGraphModel>
  </diagram>
</mxfile>
